<svg xmlns="http://www.w3.org/2000/svg" width="24" height="24" version="1.1"><g transform="translate(0 -1028.4)"><path fill="#7f8c8d" d="m21 1035.4v4 4 6c0 1.1-0.895 2-2 2h-14c-1.1046 0-2-0.9-2-2v-6-4-4h18z"/><path fill="#95a5a6" d="m3 1034.4v4 4 6c0 1.1 0.8954 2 2 2h14c1.105 0 2-0.9 2-2v-6-4-4h-18z"/><rect width="5" height="4" x="15" y="1046.4" fill="#7f8c8d"/><path fill="#bdc3c7" d="m5 1c-1.1046 0-2 0.8954-2 2v3 1 2 2 2 1 3c0 1.105 0.8954 2 2 2h14c1.105 0 2-0.895 2-2v-3-3-4-1-3c0-1.1046-0.895-2-2-2h-14z" transform="translate(0 1028.4)"/><rect width="3" height="1" x="16" y="20" fill="#f1c40f" transform="translate(0 1028.4)"/></g></svg>