<svg xmlns="http://www.w3.org/2000/svg" width="24" height="24" version="1.1"><g><path fill="#bdc3c7" d="m1 1035.4v1 1 2 1 1 1 1 2 1 2 1c0 1.1 0.8954 2 2 2h9 9c1.105 0 2-0.9 2-2v-1-2-4-2-3-1-1h-22z" transform="translate(0 -1028.4)"/><path fill="#bdc3c7" d="m3 2c-1.1046 0-2 0.8954-2 2v3h22v-3c0-1.1046-0.895-2-2-2h-9-9z" transform="translate(0 -1028.4) translate(0 1028.4)"/><path fill="#ecf0f1" d="m1 6v1 1 2 1 1 1 1 2 1 2 1c0 1.105 0.8954 2 2 2h9 9c1.105 0 2-0.895 2-2v-1-2-4-2-3-1-1h-22z" transform="translate(0 -1028.4) translate(0 1028.4)"/><path fill="#c0392b" d="m4 4a1 1 0 1 1 -2 0 1 1 0 1 1 2 0z" transform="translate(0 -1028.4) translate(0 1028.4)"/><path fill="#27ae60" d="m4 4a1 1 0 1 1 -2 0 1 1 0 1 1 2 0z" transform="translate(0 -1028.4) translate(3 1028.4)"/><path fill="#f39c12" d="m4 4a1 1 0 1 1 -2 0 1 1 0 1 1 2 0z" transform="translate(0 -1028.4) translate(6 1028.4)"/></g></svg>